<?xml version="1.0" encoding="UTF-8"?>
<svg id="Layer_1" data-name="Layer 1" xmlns="http://www.w3.org/2000/svg" version="1.1" viewBox="0 0 500 509">
  <defs>
    <style>
      .cls-1 {
        opacity: 0;
      }

      .cls-2 {
        fill: #212529;
      }

      .cls-2, .cls-3 {
        stroke-width: 0px;
      }

      .cls-3 {
        fill: #fff;
      }
    </style>
  </defs>
  <rect class="cls-2" x="-15.8" y="-13.2" width="529.7" height="529.8"/>
  <g class="cls-1">
    <path class="cls-3" d="M112.4,370c-3.3-6.3-6.1-11.4-8.6-16.6-2.6-5.2-1.1-8,4.6-8.4,11.8-.8,23.6-1.4,35.4-2.2,23.7-1.5,47.5-3.2,71.2-4.7,17.8-1.1,35.6-2.2,53.3-3.3,23.8-1.5,47.5-3.1,71.2-4.7,18.4-1.2,36.9-2.3,55.3-3.2,1.9,0,5.4,1.5,5.5,2.6.2,2-1,4.9-2.6,6.2-21.9,18-45.8,33.1-71.4,45.4-1.2.6-2.3,1.2-3.5,1.9,3.8,4.1,11,5.7,16.9,3.1,3.9-1.7,7.4-4.3,11-6.7,2.1-1.4,3.9-3.2,5.8-4.7,13.6-10.4,26.1-10.3,39.5.4,2.5,2,4.6,4.5,7.2,6.1,4.2,2.5,8.6,4.8,13.2,6.5,2.7,1,4.6,2,4.2,5-.4,3.4-3.1,4.6-5.8,3.7-5.2-1.8-10.5-4-15.3-6.7-3.7-2.1-6.6-5.6-10-8.3-9-7.2-17.2-7.3-26.4-.5-4.1,3.1-8,6.5-12.2,9.4-11.6,8-23.8,7.9-35.2-.3-3.9-2.8-7.5-6.1-11.3-9-8.6-6.6-16.3-6.7-25.2-.5-2.7,1.9-5.2,4.1-7.8,6.2-15,12.4-28.4,12.4-43.4-.2-2.7-2.2-5.3-4.5-8.1-6.6-6.6-4.9-13.5-5.2-20.4-.6-3.4,2.3-6.8,4.8-10.1,7.3-15.6,12-29.2,12.1-45.1.3-4.4-3.3-8.8-6.6-13-10.1-4.3-3.7-8.7-3.7-13.2-.7-7,4.5-13.7,9.5-20.9,13.6-4.3,2.5-9.3,4-14.2,5.3-1.1.3-3.9-2-4-3.1,0-1.6,1.3-4,2.8-4.9,10-5.7,20.2-11.1,30.5-16.8h0ZM114.1,353.8c2,3.8,3.4,7,5.2,9.8.5.8,2.3,1.3,3.4,1.2,5.5-.6,10,1.6,14.2,4.8,5.4,4.1,10.7,8.4,16.3,12.3,9.2,6.4,18.5,6.6,27.7-.2,4.6-3.3,9-6.9,13.7-10,10.6-6.8,20.4-6.4,30.6,1,4.1,2.9,7.8,6.3,11.8,9.3,9.2,6.8,17.4,6.7,26.4-.3,3.3-2.5,6.4-5.3,9.7-7.8,12.1-9.1,24.2-9.5,36.2-.3,4,3.1,6.9,2.6,10.6.8,20.8-10.1,40.9-21.5,59.3-35.5.5-.4.9-1.1,1.8-2.4-89.3,5.8-177.7,11.5-267,17.2h0Z"/>
    <path class="cls-3" d="M299.9,315.4c.4,5.9-1.9,7.5-7.6,5.3-24.4-9.4-49.4-15.1-75.7-15.1-29.8,0-56.8,8.9-82.3,23.7-.9.5-1.7,1.5-2.5,1.5-1.9,0-5,.3-5.6-.7-.9-1.5-.9-4.8.2-6,21.6-25,29.8-54.9,32.7-87.1,3.1-35.9-7.9-68.5-22.7-100.3-2.7-5.9-6.1-11.4-8.8-17.3-.8-1.8-1.2-5.4-.2-6.1,1.5-1.2,4.7-1.5,6.6-.7,24.3,10.5,46.2,24.8,66.6,41.5,39.6,32.3,69.3,72.1,88,119.6,5.2,13.3,8.6,27.4,12.9,41.2-.5.1-.9.3-1.4.4h0ZM142.9,126.4c-.4.3-.8.6-1.1.9.5,1,.9,2.1,1.4,3.1,11.8,24.3,21.6,49.4,24.3,76.4,3.5,35.6-2.3,69.9-19.4,101.8-.6,1-.9,2.2-1.9,4.4,48-22.8,95.5-19.6,143.7-3.6-21.8-83.2-73.2-142.1-147-183h0Z"/>
    <path class="cls-3" d="M222.2,145c7.9,3.6,15.9,6.4,23.1,10.6,19.8,11.4,36,27.2,52.2,43.1,32.8,32.2,53.2,71.9,69.1,114.2.7,1.8.4,5.1-.8,6.2-1.2,1.1-4.4,1-6.2.3-8.5-3.2-16.7-7.5-26.3-6.7-3,.3-6,.5-8.9,1.2-4.2,1-6.2-.7-7.3-4.5-6.4-23.3-15.4-45.5-25.9-67.2-16.9-34.8-38.6-65.6-71.4-87.4-1.5-1-2.6-3.8-2.4-5.7.1-1.3,2.6-2.4,4.8-4.1h0ZM354.4,306.4c-13.9-43.6-70.5-120.9-94.5-128.9,31.6,37.1,50.5,81.1,65,125.8,10.3,1.1,19.9,2.1,29.5,3.1h0Z"/>
  </g>
  <path class="cls-3" d="M185.5,254.5c-2.2-1.1-4.2-2.1-6.2-3.1-19.2-9.5-38.4-19-57.6-28.5-8.8-4.4-17.7-8.7-26.5-13.1-2.5-1.3-3.9-3.2-3.9-6.2.1-8.2.2-16.3,0-24.5-.1-8.4,2.4-16,7.1-22.8,7.4-10.6,17.5-17.1,30.5-18.8,1.3-.2,2.6-.2,4-.2,58.9,0,117.8,0,176.7,0,11.3,0,20.9,4,29.2,11.5,6.5,5.8,10.6,13.2,12.8,21.6.1.5.3,1.1.5,1.7,3-1.4,5.8-2.8,8.6-4.2,14.5-7.2,29.1-14.4,43.6-21.7,2.5-1.2,4.1-.3,4.1,2.5,0,9.4,0,18.9,0,28.3,0,2.6-1.1,4.3-3.4,5.4-29.2,14.4-58.3,28.9-87.5,43.3-18.9,9.4-37.9,18.8-56.8,28.2-.5.2-.9.5-1.5.8,1.6.8,3,1.5,4.4,2.2,23.2,11.5,46.3,23,69.5,34.4,23.3,11.6,46.6,23.2,70,34.6,4,1.9,5.5,4.3,5.4,8.7-.3,8.6,0,17.2,0,25.8,0,2.9-1.7,3.9-4.4,2.6-12.7-6.3-25.4-12.6-38.2-18.9-4.1-2-8.1-4.1-12.1-6.1-.5-.2-.9-.5-1.6-.8-.5,1.4-.9,2.6-1.3,3.9-5.1,15.9-15.9,25.7-31.9,29.9-3,.8-6.3.9-9.4.9-58.5,0-117-.1-175.5.1-20.5,0-37.5-15-41.8-32.7-1.1-4.7-.9-9.4-1-14.1,0-6.5.1-12.9,0-19.4,0-3.2,1.4-5.2,4.1-6.5,3.8-1.9,7.7-3.8,11.5-5.7,11.1-5.5,22.2-11,33.3-16.5,14.6-7.2,29.2-14.4,43.8-21.6.4-.2.8-.4,1.4-.8ZM221.9,339.3c28.7,0,57.4,0,86.1,0,.6,0,1.2,0,1.8,0,5.5-.4,9.5-4,10.2-9.5.3-2.3,0-4.7.2-7.1,0-1.3-.4-1.8-1.5-2.3-20.9-10.3-41.8-20.7-62.8-31.1-10.8-5.4-21.7-10.7-32.5-16-.8-.4-1.4-.4-2.2,0-5.9,3-11.8,5.9-17.7,8.8-25.5,12.7-51,25.4-76.6,37.9-2.2,1.1-3.6,2.2-3,4.8,0,.4,0,.7,0,1.1,0,3,0,6,1.9,8.6,2.4,3.3,5.7,4.8,9.7,4.8,28.8,0,57.7,0,86.5,0ZM222.1,169.7h0c-29,0-58,0-87.1,0-6.2,0-10.8,4.2-11.1,10.4-.1,2,0,4,0,5.9,0,.9.3,1.4,1.1,1.8,5.3,2.6,10.7,5.3,16,7.9,26.8,13.3,53.5,26.5,80.3,39.8.9.4,1.6.5,2.5,0,10.8-5.4,21.5-10.7,32.3-16.1,21-10.4,42.1-20.8,63.2-31.3.7-.4,1-.8,1-1.6,0-2.1,0-4.2,0-6.2-.2-6.2-4.9-10.8-11.1-10.8-29,0-57.9,0-86.9,0Z"/>
</svg>