<?xml version="1.0" encoding="UTF-8"?>
<svg id="Layer_1" data-name="Layer 1" xmlns="http://www.w3.org/2000/svg" version="1.1" viewBox="0 0 500 508.96">
  <defs>
    <style>
      .cls-1 {
        fill: #000;
      }

      .cls-1, .cls-2 {
        stroke-width: 0px;
      }

      .cls-2 {
        fill: #fff;
      }
    </style>
  </defs>
  <rect class="cls-1" x="-15.76" y="-13.18" width="529.75" height="529.75"/>
  <g>
    <path class="cls-2" d="M112.43,370.03c-3.31-6.34-6.05-11.43-8.64-16.59-2.6-5.2-1.14-7.95,4.59-8.35,11.79-.82,23.6-1.41,35.39-2.18,23.74-1.54,47.48-3.17,71.23-4.7,17.77-1.15,35.56-2.16,53.33-3.3,23.75-1.52,47.49-3.14,71.24-4.66,18.44-1.18,36.88-2.34,55.33-3.24,1.9-.09,5.38,1.48,5.5,2.56.21,1.98-.98,4.86-2.57,6.16-21.94,18-45.75,33.12-71.36,45.37-1.18.56-2.3,1.24-3.5,1.89,3.76,4.09,10.97,5.68,16.89,3.11,3.9-1.7,7.4-4.34,10.96-6.74,2.06-1.39,3.86-3.16,5.84-4.68,13.6-10.44,26.09-10.34,39.47.36,2.47,1.97,4.56,4.53,7.23,6.13,4.19,2.51,8.61,4.8,13.19,6.46,2.74,1,4.62,1.97,4.23,5.03-.44,3.41-3.15,4.65-5.84,3.72-5.25-1.82-10.49-3.95-15.28-6.74-3.68-2.15-6.56-5.61-9.95-8.3-9.02-7.18-17.17-7.32-26.4-.49-4.14,3.07-8.02,6.51-12.25,9.44-11.58,8.01-23.84,7.88-35.24-.34-3.91-2.82-7.49-6.1-11.32-9.03-8.58-6.56-16.33-6.72-25.17-.48-2.71,1.91-5.24,4.1-7.8,6.22-14.95,12.43-28.43,12.36-43.45-.23-2.68-2.24-5.34-4.52-8.14-6.6-6.61-4.91-13.47-5.24-20.36-.59-3.44,2.32-6.79,4.79-10.08,7.32-15.58,11.98-29.19,12.11-45.05.26-4.4-3.28-8.82-6.57-12.98-10.14-4.34-3.73-8.68-3.7-13.22-.74-6.96,4.54-13.66,9.51-20.86,13.62-4.35,2.48-9.35,3.95-14.23,5.26-1.06.29-3.94-1.96-3.98-3.12-.06-1.63,1.33-4.05,2.8-4.9,9.99-5.74,20.16-11.15,30.45-16.77ZM114.1,353.76c1.96,3.82,3.36,6.96,5.18,9.84.51.81,2.29,1.31,3.4,1.19,5.54-.58,10.04,1.61,14.25,4.81,5.43,4.12,10.74,8.4,16.33,12.3,9.19,6.41,18.51,6.56,27.7-.17,4.56-3.34,8.97-6.91,13.72-9.95,10.57-6.77,20.36-6.42,30.59.95,4.05,2.91,7.76,6.29,11.76,9.27,9.16,6.83,17.39,6.72,26.43-.27,3.29-2.55,6.39-5.34,9.71-7.84,12.14-9.11,24.23-9.52,36.16-.3,3.97,3.07,6.87,2.62,10.65.79,20.83-10.08,40.87-21.46,59.34-35.48.54-.41.86-1.13,1.75-2.35-89.27,5.76-177.7,11.46-266.96,17.22Z"/>
    <path class="cls-2" d="M299.95,315.45c.36,5.91-1.88,7.49-7.59,5.29-24.38-9.38-49.45-15.07-75.74-15.09-29.77-.02-56.83,8.93-82.28,23.69-.86.5-1.68,1.48-2.54,1.5-1.95.06-4.99.31-5.6-.71-.9-1.49-.92-4.77.16-6.02,21.62-25.04,29.84-54.91,32.66-87.06,3.15-35.95-7.88-68.5-22.68-100.27-2.73-5.86-6.13-11.4-8.82-17.28-.83-1.81-1.21-5.38-.25-6.11,1.53-1.16,4.72-1.47,6.57-.67,24.28,10.49,46.22,24.84,66.63,41.51,39.56,32.31,69.27,72.05,87.97,119.63,5.25,13.34,8.63,27.42,12.87,41.16-.45.14-.9.27-1.35.41ZM142.93,126.45c-.38.31-.76.63-1.15.94.47,1.03.92,2.06,1.41,3.07,11.84,24.29,21.61,49.44,24.29,76.43,3.53,35.61-2.31,69.87-19.37,101.78-.56,1.05-.93,2.21-1.86,4.42,47.99-22.83,95.52-19.64,143.69-3.63-21.77-83.25-73.21-142.15-147.02-183.01Z"/>
    <path class="cls-2" d="M222.16,145.05c7.89,3.57,15.89,6.44,23.14,10.61,19.8,11.38,36.01,27.21,52.18,43.12,32.76,32.22,53.17,71.85,69.09,114.19.69,1.82.42,5.09-.79,6.23-1.16,1.1-4.35.97-6.23.26-8.52-3.23-16.73-7.51-26.26-6.67-2.97.26-5.99.45-8.87,1.17-4.21,1.05-6.25-.72-7.3-4.53-6.39-23.27-15.42-45.51-25.93-67.19-16.87-34.8-38.6-65.58-71.42-87.38-1.49-.99-2.55-3.81-2.42-5.67.1-1.28,2.62-2.37,4.79-4.15ZM354.44,306.4c-13.91-43.65-70.54-120.89-94.49-128.92,31.61,37.06,50.5,81.05,65.01,125.77,10.32,1.1,19.88,2.13,29.48,3.15Z"/>
  </g>
</svg>