<?xml version="1.0" encoding="UTF-8"?>
<svg id="Layer_1" data-name="Layer 1" xmlns="http://www.w3.org/2000/svg" version="1.1" viewBox="0 0 500 509">
  <defs>
    <style>
      .cls-1 {
        fill: #212529;
      }

      .cls-1, .cls-2 {
        stroke-width: 0px;
      }

      .cls-2 {
        fill: #fff;
      }
    </style>
  </defs>
  <rect class="cls-1" x="-15.8" y="-13.2" width="529.7" height="529.8"/>
  <g>
    <path class="cls-2" d="M112.4,370c-3.3-6.3-6.1-11.4-8.6-16.6-2.6-5.2-1.1-8,4.6-8.4,11.8-.8,23.6-1.4,35.4-2.2,23.7-1.5,47.5-3.2,71.2-4.7,17.8-1.1,35.6-2.2,53.3-3.3,23.8-1.5,47.5-3.1,71.2-4.7,18.4-1.2,36.9-2.3,55.3-3.2,1.9,0,5.4,1.5,5.5,2.6.2,2-1,4.9-2.6,6.2-21.9,18-45.8,33.1-71.4,45.4-1.2.6-2.3,1.2-3.5,1.9,3.8,4.1,11,5.7,16.9,3.1,3.9-1.7,7.4-4.3,11-6.7,2.1-1.4,3.9-3.2,5.8-4.7,13.6-10.4,26.1-10.3,39.5.4,2.5,2,4.6,4.5,7.2,6.1,4.2,2.5,8.6,4.8,13.2,6.5,2.7,1,4.6,2,4.2,5-.4,3.4-3.1,4.6-5.8,3.7-5.2-1.8-10.5-4-15.3-6.7-3.7-2.1-6.6-5.6-10-8.3-9-7.2-17.2-7.3-26.4-.5-4.1,3.1-8,6.5-12.2,9.4-11.6,8-23.8,7.9-35.2-.3-3.9-2.8-7.5-6.1-11.3-9-8.6-6.6-16.3-6.7-25.2-.5-2.7,1.9-5.2,4.1-7.8,6.2-15,12.4-28.4,12.4-43.4-.2-2.7-2.2-5.3-4.5-8.1-6.6-6.6-4.9-13.5-5.2-20.4-.6-3.4,2.3-6.8,4.8-10.1,7.3-15.6,12-29.2,12.1-45.1.3-4.4-3.3-8.8-6.6-13-10.1-4.3-3.7-8.7-3.7-13.2-.7-7,4.5-13.7,9.5-20.9,13.6-4.3,2.5-9.3,4-14.2,5.3-1.1.3-3.9-2-4-3.1,0-1.6,1.3-4,2.8-4.9,10-5.7,20.2-11.1,30.5-16.8h0ZM114.1,353.8c2,3.8,3.4,7,5.2,9.8.5.8,2.3,1.3,3.4,1.2,5.5-.6,10,1.6,14.2,4.8,5.4,4.1,10.7,8.4,16.3,12.3,9.2,6.4,18.5,6.6,27.7-.2,4.6-3.3,9-6.9,13.7-10,10.6-6.8,20.4-6.4,30.6,1,4.1,2.9,7.8,6.3,11.8,9.3,9.2,6.8,17.4,6.7,26.4-.3,3.3-2.5,6.4-5.3,9.7-7.8,12.1-9.1,24.2-9.5,36.2-.3,4,3.1,6.9,2.6,10.6.8,20.8-10.1,40.9-21.5,59.3-35.5.5-.4.9-1.1,1.8-2.4-89.3,5.8-177.7,11.5-267,17.2h0Z"/>
    <path class="cls-2" d="M299.9,315.4c.4,5.9-1.9,7.5-7.6,5.3-24.4-9.4-49.4-15.1-75.7-15.1-29.8,0-56.8,8.9-82.3,23.7-.9.5-1.7,1.5-2.5,1.5-1.9,0-5,.3-5.6-.7-.9-1.5-.9-4.8.2-6,21.6-25,29.8-54.9,32.7-87.1,3.1-35.9-7.9-68.5-22.7-100.3-2.7-5.9-6.1-11.4-8.8-17.3-.8-1.8-1.2-5.4-.2-6.1,1.5-1.2,4.7-1.5,6.6-.7,24.3,10.5,46.2,24.8,66.6,41.5,39.6,32.3,69.3,72.1,88,119.6,5.2,13.3,8.6,27.4,12.9,41.2-.5.1-.9.3-1.4.4h0ZM142.9,126.4c-.4.3-.8.6-1.1.9.5,1,.9,2.1,1.4,3.1,11.8,24.3,21.6,49.4,24.3,76.4,3.5,35.6-2.3,69.9-19.4,101.8-.6,1-.9,2.2-1.9,4.4,48-22.8,95.5-19.6,143.7-3.6-21.8-83.2-73.2-142.1-147-183h0Z"/>
    <path class="cls-2" d="M222.2,145c7.9,3.6,15.9,6.4,23.1,10.6,19.8,11.4,36,27.2,52.2,43.1,32.8,32.2,53.2,71.9,69.1,114.2.7,1.8.4,5.1-.8,6.2-1.2,1.1-4.4,1-6.2.3-8.5-3.2-16.7-7.5-26.3-6.7-3,.3-6,.5-8.9,1.2-4.2,1-6.2-.7-7.3-4.5-6.4-23.3-15.4-45.5-25.9-67.2-16.9-34.8-38.6-65.6-71.4-87.4-1.5-1-2.6-3.8-2.4-5.7.1-1.3,2.6-2.4,4.8-4.1h0ZM354.4,306.4c-13.9-43.6-70.5-120.9-94.5-128.9,31.6,37.1,50.5,81.1,65,125.8,10.3,1.1,19.9,2.1,29.5,3.1h0Z"/>
  </g>
</svg>